# 3ds Max Wavefront OBJ Exporter v0.97b - (c)2007 guruware
# File Created: 22.04.2017 17:29:19

#
# object Hedra002
#

v  2.1736 7.7438 -1.2224
v  3.1028 7.4008 -0.6053
v  3.0778 7.4285 -1.8067
v  3.5704 6.5804 -2.1549
v  2.6058 6.9334 -2.7660
v  1.9707 6.1023 -3.1250
v  1.4264 6.9404 -2.7705
v  0.4827 6.5907 -2.1565
v  1.1695 7.4312 -1.8182
v  1.1945 7.4232 -0.6169
v  0.4925 6.5723 -0.2127
v  1.4632 6.8749 0.3746
v  2.0042 6.0346 0.7626
v  2.6426 6.8683 0.3791
v  3.5802 6.5499 -0.2111
v  3.9081 6.0454 -1.1743
v  3.4719 5.5358 -2.1339
v  3.5516 5.5053 -0.1901
v  1.3976 5.1847 0.4003
v  2.5770 5.1781 0.4169
v  2.8695 4.6660 -0.5534
v  2.8458 4.6936 -1.7547
v  2.4969 5.2432 -2.7283
v  1.9322 4.3633 -1.1652
v  0.4639 5.5277 -0.2127
v  0.9612 4.6884 -0.5660
v  0.9375 4.6964 -1.7673
v  1.3175 5.2502 -2.7449
v  0.3842 5.5461 -2.1565
v  0.0915 6.0548 -1.1822
v  -0.3515 12.9510 -0.0003
v  1.3958 12.3062 1.1599
v  1.3488 12.3581 -1.0991
v  2.2751 10.7635 -1.7539
v  0.4613 11.4272 -2.9031
v  -0.7330 9.8644 -3.5781
v  -1.7565 11.4404 -2.9116
v  -3.5310 10.7829 -1.7569
v  -2.2396 12.3633 -1.1208
v  -2.1926 12.3482 1.1382
v  -3.5126 10.7483 1.8983
v  -1.6873 11.3173 3.0027
v  -0.6700 9.7371 3.7323
v  0.5305 11.3048 3.0112
v  2.2936 10.7060 1.9013
v  2.9101 9.7573 0.0901
v  2.0899 8.7991 -1.7144
v  2.2398 8.7417 1.9408
v  -1.8106 8.1389 3.0509
v  0.4071 8.1265 3.0821
v  0.9571 7.1635 1.2576
v  0.9125 7.2155 -1.0014
v  0.2565 8.2489 -2.8321
v  -0.8053 6.5944 0.1072
v  -3.5663 8.7840 1.8983
v  -2.6313 7.2056 1.2339
v  -2.6759 7.2207 -1.0251
v  -1.9612 8.2621 -2.8634
v  -3.7162 8.8186 -1.7570
v  -4.2667 9.7750 0.0752
v  0.0000 0.0000 0.7232
v  -0.5114 0.0000 0.5114
v  -0.7232 0.0000 0.0000
v  -0.5114 0.0000 -0.5114
v  0.0000 0.0000 -0.7232
v  0.5114 0.0000 -0.5114
v  0.7232 0.0000 -0.0000
v  0.5114 0.0000 0.5114
v  0.4953 2.4438 -0.5114
v  0.7005 2.4965 -0.0000
v  -0.0000 2.3164 -0.7232
v  -0.4953 2.1891 -0.5114
v  -0.7005 2.1364 0.0000
v  -0.4953 2.1891 0.5114
v  0.0000 2.3164 0.7232
v  0.4953 2.4438 0.5114
v  -0.2862 7.5039 -0.0201
v  -0.3169 7.5085 -0.0952
v  -0.3912 7.5195 -0.1262
v  -0.4654 7.5305 -0.0952
v  -0.4962 7.5350 -0.0201
v  -0.4654 7.5305 0.0549
v  -0.3912 7.5195 0.0860
v  -0.3169 7.5085 0.0549
v  0.1679 4.4509 -0.3518
v  0.2997 4.4899 -0.0201
v  -0.1501 4.3567 -0.4892
v  -0.4682 4.2625 -0.3518
v  -0.5999 4.2235 -0.0201
v  -0.4682 4.2625 0.3116
v  -0.1501 4.3567 0.4490
v  0.1679 4.4509 0.3116
v  2.2357 5.4687 -0.9457
v  2.1577 5.4525 -1.1420
v  2.0499 5.6993 -1.1420
v  2.1308 5.7047 -0.9457
v  -0.3445 5.0132 -0.4892
v  -0.0143 5.0444 -0.3518
v  -0.6747 4.9819 -0.3518
v  -0.8115 4.9690 -0.0201
v  -0.6747 4.9819 0.3116
v  -0.3445 5.0132 0.4490
v  -0.0143 5.0444 0.3116
v  0.1225 5.0573 -0.0201
v  0.6225 4.7343 -0.5118
v  0.7246 4.7555 -0.2547
v  0.4812 5.0575 -0.5118
v  0.5873 5.0645 -0.2547
v  -0.4112 6.3320 -0.1743
v  -0.3480 6.3226 -0.0201
v  -0.5637 6.3546 -0.2382
v  -0.7162 6.3772 -0.1743
v  -0.7794 6.3865 -0.0201
v  -0.7162 6.3772 0.1341
v  -0.5637 6.3546 0.1979
v  -0.4112 6.3320 0.1341
# 116 vertices

vn 0.3753 0.9267 0.0166
vn 0.5953 0.5238 -0.6092
vn 0.0059 0.3481 -0.9374
vn -0.5915 0.6119 -0.5252
vn -0.3390 0.9407 0.0144
vn -0.5486 0.6286 0.5512
vn -0.0011 0.3720 0.9282
vn 0.5829 0.5358 0.6109
vn 0.9228 -0.0836 -0.3762
vn 0.9415 -0.0169 0.3367
vn -0.0152 -0.3392 0.9406
vn 0.5677 -0.6148 0.5475
vn 0.5519 -0.5930 -0.5864
vn 0.3604 -0.9323 -0.0319
vn -0.6033 -0.5335 0.5928
vn -0.3536 -0.9354 -0.0001
vn 0.0104 -0.3677 -0.9299
vn -0.5708 -0.5660 -0.5948
vn -0.9262 0.0224 0.3764
vn -0.9391 0.0784 -0.3345
vn 0.0077 0.8582 -0.5132
vn 0.0044 0.8608 -0.5090
vn 0.0045 0.8528 -0.5221
vn 0.0034 0.8442 0.5359
vn 0.0081 0.8474 0.5310
vn 0.0081 0.8481 0.5297
vn 0.8895 0.4557 0.0340
vn 0.8826 0.4698 -0.0148
vn 0.8882 0.4594 -0.0067
vn 0.5088 -0.0008 0.8609
vn 0.5220 -0.0014 0.8530
vn 0.5263 0.0021 0.8503
vn 0.8168 -0.5761 -0.0316
vn 0.8262 -0.5616 -0.0447
vn 0.8300 -0.5560 -0.0447
vn -0.0126 -0.8584 0.5129
vn -0.0131 -0.8579 0.5136
vn -0.0174 -0.8571 0.5149
vn 0.0062 -0.8390 -0.5441
vn 0.0019 -0.8398 -0.5429
vn -0.0021 -0.8391 -0.5440
vn -0.8777 -0.4771 0.0452
vn -0.8747 -0.4841 0.0229
vn -0.8685 -0.4954 0.0136
vn -0.5514 0.0461 -0.8330
vn -0.5187 0.0160 -0.8548
vn -0.5204 0.0222 -0.8536
vn -0.8107 0.5851 -0.0177
vn -0.8174 0.5757 0.0217
vn -0.8150 0.5785 0.0326
vn -0.5379 0.0130 0.8429
vn -0.5292 0.0200 0.8482
vn -0.5217 0.0446 0.8520
vn 0.5100 -0.0576 -0.8582
vn 0.5245 -0.0464 -0.8501
vn 0.5368 -0.0470 -0.8424
vn 0.0000 -1.0000 -0.0000
vn 1.0000 0.0071 0.0006
vn 0.7037 0.0031 -0.7105
vn 0.7440 0.0055 -0.6682
vn -0.0008 0.0011 -1.0000
vn 0.0686 0.0013 -0.9976
vn -0.7039 0.0058 -0.7103
vn -0.6758 0.0031 -0.7371
vn -1.0000 0.0082 -0.0008
vn -1.0000 0.0082 -0.0009
vn -0.7038 0.0034 0.7104
vn -0.6762 0.0055 0.7367
vn 0.0007 0.0010 1.0000
vn 0.0702 0.0010 0.9975
vn 0.7037 0.0051 0.7105
vn 0.7442 0.0034 0.6679
vn 0.1649 0.9863 -0.0000
vn 0.1649 0.9863 0.0000
vn 0.9074 0.1580 -0.3895
vn 0.9077 0.1583 -0.3886
vn 0.3558 0.1157 -0.9274
vn 0.3549 0.1154 -0.9278
vn -0.4025 0.0658 -0.9131
vn -0.4078 0.0643 -0.9108
vn -0.9266 0.0364 -0.3743
vn -0.9281 0.0356 -0.3707
vn -0.9266 0.0421 0.3737
vn -0.9282 0.0427 0.3697
vn -0.4055 0.0800 0.9106
vn -0.4119 0.0808 0.9076
vn 0.3512 0.1310 0.9271
vn 0.3496 0.1312 0.9277
vn 0.9060 0.1648 0.3898
vn 0.9064 0.1646 0.3890
vn 0.8624 0.3338 -0.3806
vn 0.8632 0.3398 -0.3733
vn 0.3616 0.0948 -0.9275
vn 0.3671 0.0998 -0.9248
vn -0.3625 -0.0922 -0.9274
vn -0.3675 -0.0964 -0.9250
vn -0.8925 -0.2244 -0.3914
vn -0.8941 -0.2274 -0.3858
vn -0.8918 -0.2268 0.3915
vn -0.8947 -0.2249 0.3859
vn -0.3616 -0.0948 0.9275
vn -0.3679 -0.0936 0.9251
vn 0.3606 0.0980 0.9276
vn 0.3675 0.0964 0.9250
vn 0.8867 0.2452 0.3919
vn 0.8906 0.2422 0.3850
vn 0.5468 -0.8301 -0.1089
vn 0.5231 -0.8421 -0.1316
vn -0.2990 -0.0813 -0.9508
vn -0.2608 -0.1009 -0.9601
vn -0.0329 0.9990 -0.0310
vn -0.0351 0.9992 -0.0167
vn 0.4104 0.1135 0.9048
vn 0.4351 0.1712 0.8840
vn 0.4360 -0.8953 -0.0913
vn -0.3149 -0.1219 -0.9413
vn -0.3738 0.9186 0.1281
vn 0.3447 0.1357 0.9289
vn 0.8789 0.2858 -0.3820
vn 0.8895 0.2930 -0.3508
vn 0.3521 0.1998 -0.9144
vn 0.4019 0.2164 -0.8897
vn -0.3849 0.0915 -0.9184
vn -0.3643 0.0980 -0.9261
vn -0.9221 0.0185 -0.3865
vn -0.9222 0.0184 -0.3862
vn -0.9221 0.0185 0.3865
vn -0.9222 0.0185 0.3862
vn -0.3850 0.0937 0.9181
vn -0.3652 0.0929 0.9263
vn 0.3512 0.2054 0.9135
vn 0.4012 0.2034 0.8931
vn 0.8779 0.2891 0.3817
vn 0.8913 0.2856 0.3521
vn 0.9209 -0.0427 -0.3874
vn 0.3839 0.0267 -0.9230
vn -0.3594 0.1244 -0.9249
vn -0.8999 0.1966 -0.3893
vn -0.8999 0.1966 0.3893
vn -0.3594 0.1244 0.9249
vn 0.3839 0.0267 0.9230
vn 0.9209 -0.0427 0.3874
# 142 vertex normals

vt 0.3442 0.4765 0.0000
vt 0.4282 0.4218 0.0000
vt 0.4259 0.5283 0.0000
vt 0.2080 0.2283 0.0000
vt 0.3100 0.2287 0.0000
vt 0.2575 0.3239 0.0000
vt 0.7351 0.2344 0.0000
vt 0.8198 0.2917 0.0000
vt 0.7344 0.3409 0.0000
vt 0.4560 0.4468 0.0000
vt 0.4581 0.3396 0.0000
vt 0.5473 0.4039 0.0000
vt 0.2536 0.5294 0.0000
vt 0.2558 0.4228 0.0000
vt 0.1568 0.1776 0.0000
vt 0.1568 0.2909 0.0000
vt 0.0663 0.2347 0.0000
vt 0.9276 0.6269 0.0000
vt 0.8419 0.5781 0.0000
vt 0.9269 0.5204 0.0000
vt 0.2520 0.3217 0.0000
vt 0.1473 0.3209 0.0000
vt 0.1923 0.2283 0.0000
vt 0.5815 0.2038 0.0000
vt 0.5295 0.1188 0.0000
vt 0.6360 0.1169 0.0000
vt 0.6329 0.2892 0.0000
vt 0.5264 0.2911 0.0000
vt 0.7553 0.6329 0.0000
vt 0.7546 0.5264 0.0000
vt 0.2137 0.0965 0.0000
vt 0.1625 0.0060 0.0000
vt 0.2727 0.0056 0.0000
vt 0.4560 0.4587 0.0000
vt 0.5495 0.4054 0.0000
vt 0.5500 0.5123 0.0000
vt 0.5471 0.9898 0.0000
vt 0.6013 0.9052 0.0000
vt 0.6536 0.9877 0.0000
vt 0.4459 0.5285 0.0000
vt 0.5521 0.5269 0.0000
vt 0.5057 0.6173 0.0000
vt 0.5482 0.8175 0.0000
vt 0.6547 0.8153 0.0000
vt 0.9067 0.3507 0.0000
vt 0.9074 0.2442 0.0000
vt 0.2890 0.0016 0.0000
vt 0.3948 0.0005 0.0000
vt 0.3482 0.0931 0.0000
vt 0.2531 0.6281 0.0000
vt 0.3596 0.6281 0.0000
vt 0.3068 0.7140 0.0000
vt 0.3615 0.8004 0.0000
vt 0.2550 0.8004 0.0000
vt 0.3833 0.6134 0.0000
vt 0.2768 0.6138 0.0000
vt 0.2801 0.3349 0.0000
vt 0.3866 0.3345 0.0000
vt 0.7197 0.2543 0.0000
vt 0.7225 0.1478 0.0000
vt 0.7880 0.4383 0.0000
vt 0.8945 0.4358 0.0000
vt 0.4408 0.2589 0.0000
vt 0.4436 0.1524 0.0000
vt 0.4611 0.9634 0.0000
vt 0.4625 0.8569 0.0000
vt 0.7414 0.8497 0.0000
vt 0.7399 0.9562 0.0000
vt 0.1675 0.6594 0.0000
vt 0.1683 0.7659 0.0000
vt 0.8765 0.4350 0.0000
vt 0.7700 0.4261 0.0000
vt 0.4464 0.6639 0.0000
vt 0.4472 0.7704 0.0000
vt 0.8968 0.7146 0.0000
vt 0.7903 0.7172 0.0000
vt 0.7711 0.1473 0.0000
vt 0.8776 0.1562 0.0000
vt 0.1671 0.4765 0.0000
vt 0.2510 0.4218 0.0000
vt 0.2488 0.5283 0.0000
vt 0.3657 0.3239 0.0000
vt 0.2637 0.3235 0.0000
vt 0.3162 0.2283 0.0000
vt 0.1779 0.9046 0.0000
vt 0.0932 0.8473 0.0000
vt 0.1786 0.7981 0.0000
vt 0.5524 0.2940 0.0000
vt 0.5502 0.4013 0.0000
vt 0.4611 0.3369 0.0000
vt 0.0764 0.5294 0.0000
vt 0.0787 0.4228 0.0000
vt 0.4984 0.6173 0.0000
vt 0.3851 0.6173 0.0000
vt 0.4414 0.5269 0.0000
vt 0.7404 0.4852 0.0000
vt 0.6547 0.4364 0.0000
vt 0.7397 0.3787 0.0000
vt 0.4595 0.0990 0.0000
vt 0.3548 0.0982 0.0000
vt 0.3998 0.0056 0.0000
vt 0.3187 0.9026 0.0000
vt 0.3706 0.9877 0.0000
vt 0.2641 0.9895 0.0000
vt 0.2672 0.8172 0.0000
vt 0.3737 0.8153 0.0000
vt 0.5680 0.4912 0.0000
vt 0.5673 0.3846 0.0000
vt 0.7782 0.9014 0.0000
vt 0.8294 0.9919 0.0000
vt 0.7192 0.9923 0.0000
vt 0.6787 0.8080 0.0000
vt 0.7722 0.7546 0.0000
vt 0.7727 0.8615 0.0000
vt 0.9797 0.9135 0.0000
vt 0.8951 0.8592 0.0000
vt 0.9776 0.8070 0.0000
vt 0.6179 0.6156 0.0000
vt 0.5117 0.6173 0.0000
vt 0.5580 0.5269 0.0000
vt 0.8074 0.9124 0.0000
vt 0.8052 0.8058 0.0000
vt 0.0063 0.7883 0.0000
vt 0.0056 0.8948 0.0000
vt 0.3391 0.0920 0.0000
vt 0.2333 0.0931 0.0000
vt 0.2798 0.0005 0.0000
vt 0.5365 0.6281 0.0000
vt 0.6430 0.6281 0.0000
vt 0.5903 0.7140 0.0000
vt 0.6449 0.8004 0.0000
vt 0.5384 0.8004 0.0000
vt 0.2061 0.6134 0.0000
vt 0.0996 0.6138 0.0000
vt 0.1029 0.3349 0.0000
vt 0.2095 0.3345 0.0000
vt 0.1805 0.8522 0.0000
vt 0.1776 0.9587 0.0000
vt 0.6007 0.2966 0.0000
vt 0.7072 0.2940 0.0000
vt 0.4593 0.8476 0.0000
vt 0.4565 0.9541 0.0000
vt 0.9533 0.9995 0.0000
vt 0.8468 0.9980 0.0000
vt 0.8395 0.7192 0.0000
vt 0.9460 0.7207 0.0000
vt 0.4509 0.6594 0.0000
vt 0.4518 0.7659 0.0000
vt 0.0365 0.7040 0.0000
vt 0.1430 0.7129 0.0000
vt 0.7298 0.6639 0.0000
vt 0.7306 0.7704 0.0000
vt 0.7095 0.5729 0.0000
vt 0.6030 0.5755 0.0000
vt 0.1419 0.9917 0.0000
vt 0.0354 0.9828 0.0000
vt 0.4016 0.1017 0.0000
vt 0.4298 0.1294 0.0000
vt 0.4301 0.1688 0.0000
vt 0.4025 0.1970 0.0000
vt 0.3630 0.1973 0.0000
vt 0.3349 0.1696 0.0000
vt 0.3345 0.1302 0.0000
vt 0.3622 0.1021 0.0000
vt 0.9581 0.1523 0.0000
vt 0.9945 0.1523 0.0000
vt 0.9945 0.3265 0.0000
vt 0.9581 0.3302 0.0000
vt 0.0733 0.5392 0.0000
vt 0.0369 0.5380 0.0000
vt 0.0427 0.3730 0.0000
vt 0.0783 0.3652 0.0000
vt 0.0005 0.5367 0.0000
vt 0.0071 0.3808 0.0000
vt 0.9930 0.0005 0.0000
vt 0.9930 0.0369 0.0000
vt 0.8407 0.0369 0.0000
vt 0.8370 0.0005 0.0000
vt 0.9930 0.0734 0.0000
vt 0.8370 0.0734 0.0000
vt 0.9926 0.0758 0.0000
vt 0.9926 0.1123 0.0000
vt 0.8276 0.1123 0.0000
vt 0.8366 0.0770 0.0000
vt 0.9926 0.1487 0.0000
vt 0.8185 0.1476 0.0000
vt 0.9216 0.1523 0.0000
vt 0.9216 0.3265 0.0000
vt 0.1122 0.2790 0.0000
vt 0.1163 0.2830 0.0000
vt 0.1164 0.2888 0.0000
vt 0.1123 0.2928 0.0000
vt 0.1066 0.2929 0.0000
vt 0.1024 0.2888 0.0000
vt 0.1023 0.2831 0.0000
vt 0.1064 0.2790 0.0000
vt 0.9831 0.4695 0.0000
vt 0.9595 0.4723 0.0000
vt 0.0371 0.2273 0.0000
vt 0.0600 0.2214 0.0000
vt 0.0142 0.2332 0.0000
vt 0.6920 0.0355 0.0000
vt 0.6892 0.0119 0.0000
vt 0.6892 0.0591 0.0000
vt 0.6822 0.1016 0.0000
vt 0.6889 0.0789 0.0000
vt 0.6755 0.1242 0.0000
vt 0.9359 0.4695 0.0000
vt 0.0996 0.3074 0.0000
vt 0.0984 0.2934 0.0000
vt 0.1160 0.2934 0.0000
vt 0.1164 0.3074 0.0000
vt 0.0249 0.1801 0.0000
vt 0.0485 0.1787 0.0000
vt 0.0013 0.1815 0.0000
vt 0.6389 0.0355 0.0000
vt 0.6379 0.0119 0.0000
vt 0.6379 0.0591 0.0000
vt 0.6354 0.0877 0.0000
vt 0.6376 0.0642 0.0000
vt 0.6332 0.1113 0.0000
vt 0.9595 0.5127 0.0000
vt 0.9359 0.5118 0.0000
vt 0.0410 0.1069 0.0000
vt 0.0411 0.0815 0.0000
vt 0.0754 0.0830 0.0000
vt 0.0753 0.1028 0.0000
vt 0.0838 0.1790 0.0000
vt 0.0930 0.2023 0.0000
vt 0.0410 0.0241 0.0000
vt 0.0507 0.0005 0.0000
vt 0.0839 0.0172 0.0000
vt 0.0763 0.0355 0.0000
vt 0.0157 0.6685 0.0000
vt 0.0283 0.6281 0.0000
vt 0.0586 0.6470 0.0000
vt 0.0488 0.6690 0.0000
vt 0.1937 0.0824 0.0000
vt 0.1936 0.0974 0.0000
vt 0.1971 0.1372 0.0000
vt 0.2042 0.1550 0.0000
vt 0.1939 0.0665 0.0000
vt 0.1881 0.0804 0.0000
vt 0.1663 0.6978 0.0000
vt 0.1588 0.7146 0.0000
vt 0.9831 0.5118 0.0000
vt 0.9705 0.6036 0.0000
vt 0.9595 0.6029 0.0000
vt 0.0126 0.0840 0.0000
vt 0.0234 0.0860 0.0000
vt 0.0018 0.0820 0.0000
vt 0.5378 0.0355 0.0000
vt 0.5385 0.0245 0.0000
vt 0.5385 0.0465 0.0000
vt 0.5398 0.0721 0.0000
vt 0.5382 0.0612 0.0000
vt 0.5414 0.0830 0.0000
vt 0.9485 0.6036 0.0000
vt 0.9648 0.6874 0.0000
vt 0.9595 0.6871 0.0000
vt 0.0278 0.0015 0.0000
vt 0.0330 0.0024 0.0000
vt 0.0225 0.0005 0.0000
vt 0.4560 0.0355 0.0000
vt 0.4563 0.0302 0.0000
vt 0.4563 0.0409 0.0000
vt 0.4568 0.0844 0.0000
vt 0.4560 0.0791 0.0000
vt 0.4576 0.0897 0.0000
vt 0.9542 0.6874 0.0000
# 270 texture coords

o Hedra002
g Hedra002
f 1/1/1 2/2/1 3/3/1 
f 3/4/2 4/5/2 5/6/2 
f 5/7/3 6/8/3 7/9/3 
f 7/10/4 8/11/4 9/12/4 
f 9/13/5 10/14/5 1/1/5 
f 10/15/6 11/16/6 12/17/6 
f 12/18/7 13/19/7 14/20/7 
f 14/21/8 15/22/8 2/23/8 
f 16/24/9 17/25/9 4/26/9 
f 15/27/10 18/28/10 16/24/10 
f 13/19/11 19/29/11 20/30/11 
f 20/31/12 21/32/12 18/33/12 
f 22/34/13 23/35/13 17/36/13 
f 21/37/14 24/38/14 22/39/14 
f 19/40/15 25/41/15 26/42/15 
f 26/43/16 27/44/16 24/38/16 
f 28/45/17 6/8/17 23/46/17 
f 27/47/18 29/48/18 28/49/18 
f 25/50/19 11/51/19 30/52/19 
f 30/52/20 8/53/20 29/54/20 
f 3/3/21 5/55/21 7/56/21 
f 3/3/22 7/56/22 9/13/22 
f 3/3/23 9/13/23 1/1/23 
f 10/14/24 12/57/24 14/58/24 
f 10/14/25 14/58/25 2/2/25 
f 10/14/26 2/2/26 1/1/26 
f 2/59/27 15/27/27 16/24/27 
f 2/59/28 16/24/28 4/26/28 
f 2/59/29 4/26/29 3/60/29 
f 14/20/30 13/19/30 20/30/30 
f 14/20/31 20/30/31 18/61/31 
f 14/20/32 18/61/32 15/62/32 
f 18/28/33 21/63/33 22/64/33 
f 18/28/34 22/64/34 17/25/34 
f 18/28/35 17/25/35 16/24/35 
f 20/65/36 19/66/36 26/43/36 
f 20/65/37 26/43/37 24/38/37 
f 20/65/38 24/38/38 21/37/38 
f 24/38/39 27/44/39 28/67/39 
f 24/38/40 28/67/40 23/68/40 
f 24/38/41 23/68/41 22/39/41 
f 26/69/42 25/50/42 30/52/42 
f 26/69/43 30/52/43 29/54/43 
f 26/69/44 29/54/44 27/70/44 
f 29/71/45 8/72/45 7/9/45 
f 29/71/46 7/9/46 6/8/46 
f 29/71/47 6/8/47 28/45/47 
f 30/52/48 11/51/48 10/73/48 
f 30/52/49 10/73/49 9/74/49 
f 30/52/50 9/74/50 8/53/50 
f 11/75/51 25/76/51 19/29/51 
f 11/75/52 19/29/52 13/19/52 
f 11/75/53 13/19/53 12/18/53 
f 5/7/54 4/77/54 17/78/54 
f 5/7/55 17/78/55 23/46/55 
f 5/7/56 23/46/56 6/8/56 
f 31/79/1 32/80/1 33/81/1 
f 33/82/2 34/83/2 35/84/2 
f 35/85/3 36/86/3 37/87/3 
f 37/88/4 38/89/4 39/90/4 
f 39/91/5 40/92/5 31/79/5 
f 40/93/6 41/94/6 42/95/6 
f 42/96/7 43/97/7 44/98/7 
f 44/99/8 45/100/8 32/101/8 
f 46/102/9 47/103/9 34/104/9 
f 45/105/10 48/106/10 46/102/10 
f 43/97/11 49/107/11 50/108/11 
f 50/109/12 51/110/12 48/111/12 
f 52/112/13 53/113/13 47/114/13 
f 51/115/14 54/116/14 52/117/14 
f 49/118/15 55/119/15 56/120/15 
f 56/121/16 57/122/16 54/116/16 
f 58/123/17 36/86/17 53/124/17 
f 57/125/18 59/126/18 58/127/18 
f 55/128/19 41/129/19 60/130/19 
f 60/130/20 38/131/20 59/132/20 
f 33/81/21 35/133/21 37/134/21 
f 33/81/22 37/134/22 39/91/22 
f 33/81/23 39/91/23 31/79/23 
f 40/92/24 42/135/24 44/136/24 
f 40/92/25 44/136/25 32/80/25 
f 40/92/26 32/80/26 31/79/26 
f 32/137/27 45/105/27 46/102/27 
f 32/137/28 46/102/28 34/104/28 
f 32/137/29 34/104/29 33/138/29 
f 44/98/30 43/97/30 50/108/30 
f 44/98/31 50/108/31 48/139/31 
f 44/98/32 48/139/32 45/140/32 
f 48/106/33 51/141/33 52/142/33 
f 48/106/34 52/142/34 47/103/34 
f 48/106/35 47/103/35 46/102/35 
f 50/143/36 49/144/36 56/121/36 
f 50/143/37 56/121/37 54/116/37 
f 50/143/38 54/116/38 51/115/38 
f 54/116/39 57/122/39 58/145/39 
f 54/116/40 58/145/40 53/146/40 
f 54/116/41 53/146/41 52/117/41 
f 56/147/42 55/128/42 60/130/42 
f 56/147/43 60/130/43 59/132/43 
f 56/147/44 59/132/44 57/148/44 
f 59/149/45 38/150/45 37/87/45 
f 59/149/46 37/87/46 36/86/46 
f 59/149/47 36/86/47 58/123/47 
f 60/130/48 41/129/48 40/151/48 
f 60/130/49 40/151/49 39/152/49 
f 60/130/50 39/152/50 38/131/50 
f 41/153/51 55/154/51 49/107/51 
f 41/153/52 49/107/52 43/97/52 
f 41/153/53 43/97/53 42/96/53 
f 35/85/54 34/155/54 47/156/54 
f 35/85/55 47/156/55 53/124/55 
f 35/85/56 53/124/56 36/86/56 
f 61/157/57 62/158/57 63/159/57 
f 63/159/57 64/160/57 65/161/57 
f 65/161/57 66/162/57 67/163/57 
f 63/159/57 65/161/57 67/163/57 
f 61/157/57 63/159/57 67/163/57 
f 68/164/57 61/157/57 67/163/57 
f 67/165/58 66/166/59 69/167/60 
f 69/167/60 70/168/58 67/165/58 
f 66/169/59 65/170/61 71/171/62 
f 71/171/62 69/172/60 66/169/59 
f 65/170/61 64/173/63 72/174/64 
f 72/174/64 71/171/62 65/170/61 
f 64/175/63 63/176/65 73/177/66 
f 73/177/66 72/178/64 64/175/63 
f 63/176/65 62/179/67 74/180/68 
f 74/180/68 73/177/66 63/176/65 
f 62/181/67 61/182/69 75/183/70 
f 75/183/70 74/184/68 62/181/67 
f 61/182/69 68/185/71 76/186/72 
f 76/186/72 75/183/70 61/182/69 
f 68/187/71 67/165/58 70/168/58 
f 70/168/58 76/188/72 68/187/71 
f 77/189/73 78/190/74 79/191/74 
f 79/191/74 80/192/73 81/193/74 
f 81/193/74 82/194/74 83/195/73 
f 79/191/74 81/193/74 83/195/73 
f 77/189/73 79/191/74 83/195/73 
f 84/196/73 77/189/73 83/195/73 
f 70/168/75 69/167/75 85/197/75 
f 85/197/76 86/198/76 70/168/76 
f 69/172/77 71/171/77 87/199/77 
f 87/199/78 85/200/78 69/172/78 
f 71/171/79 72/174/79 88/201/79 
f 88/201/80 87/199/80 71/171/80 
f 72/178/81 73/177/81 89/202/81 
f 89/202/82 88/203/82 72/178/82 
f 73/177/83 74/180/83 90/204/83 
f 90/204/84 89/202/84 73/177/84 
f 74/184/85 75/183/85 91/205/85 
f 91/205/86 90/206/86 74/184/86 
f 75/183/87 76/186/87 92/207/87 
f 92/207/88 91/205/88 75/183/88 
f 76/188/89 70/168/89 86/198/89 
f 86/198/90 92/208/90 76/188/90 
f 93/209/91 94/210/91 95/211/91 
f 95/211/92 96/212/92 93/209/92 
f 85/200/93 87/199/93 97/213/93 
f 97/213/94 98/214/94 85/200/94 
f 87/199/95 88/201/95 99/215/95 
f 99/215/96 97/213/96 87/199/96 
f 88/203/97 89/202/97 100/216/97 
f 100/216/98 99/217/98 88/203/98 
f 89/202/99 90/204/99 101/218/99 
f 101/218/100 100/216/100 89/202/100 
f 90/206/101 91/205/101 102/219/101 
f 102/219/102 101/220/102 90/206/102 
f 91/205/103 92/207/103 103/221/103 
f 103/221/104 102/219/104 91/205/104 
f 92/208/105 86/198/105 104/222/105 
f 104/222/106 103/223/106 92/208/106 
f 86/224/107 85/225/107 105/226/107 
f 105/226/108 106/227/108 86/224/108 
f 85/200/109 98/214/109 107/228/109 
f 107/228/110 105/229/110 85/200/110 
f 98/230/111 104/231/111 108/232/111 
f 108/232/112 107/233/112 98/230/112 
f 104/234/113 86/235/113 106/236/113 
f 106/236/114 108/237/114 104/234/114 
f 106/227/115 105/226/115 94/238/115 
f 94/238/115 93/239/115 106/227/115 
f 105/229/116 107/228/116 95/240/116 
f 95/240/116 94/241/116 105/229/116 
f 107/233/117 108/232/117 96/242/117 
f 96/242/117 95/243/117 107/233/117 
f 108/237/118 106/236/118 93/244/118 
f 93/244/118 96/245/118 108/237/118 
f 104/222/119 98/246/119 109/247/119 
f 109/247/120 110/248/120 104/222/120 
f 98/214/121 97/213/121 111/249/121 
f 111/249/122 109/250/122 98/214/122 
f 97/213/123 99/215/123 112/251/123 
f 112/251/124 111/249/124 97/213/124 
f 99/217/125 100/216/125 113/252/125 
f 113/252/126 112/253/126 99/217/126 
f 100/216/127 101/218/127 114/254/127 
f 114/254/128 113/252/128 100/216/128 
f 101/220/129 102/219/129 115/255/129 
f 115/255/130 114/256/130 101/220/130 
f 102/219/131 103/221/131 116/257/131 
f 116/257/132 115/255/132 102/219/132 
f 103/223/133 104/222/133 110/248/133 
f 110/248/134 116/258/134 103/223/134 
f 110/248/135 109/247/135 78/259/135 
f 78/259/135 77/260/135 110/248/135 
f 109/250/136 111/249/136 79/261/136 
f 79/261/136 78/262/136 109/250/136 
f 111/249/137 112/251/137 80/263/137 
f 80/263/137 79/261/137 111/249/137 
f 112/253/138 113/252/138 81/264/138 
f 81/264/138 80/265/138 112/253/138 
f 113/252/139 114/254/139 82/266/139 
f 82/266/139 81/264/139 113/252/139 
f 114/256/140 115/255/140 83/267/140 
f 83/267/140 82/268/140 114/256/140 
f 115/255/141 116/257/141 84/269/141 
f 84/269/141 83/267/141 115/255/141 
f 116/258/142 110/248/142 77/260/142 
f 77/260/142 84/270/142 116/258/142 
# 220 faces

